<svg fill="#C71D24" height="110" width="110" xmlns="http://www.w3.org/2000/svg"><path d="m41.172 1.172 67.66 67.66a3.989 3.989 0 0 1 1.168 2.82V110L0 0h38.343a4 4 0 0 1 2.829 1.172z"/><path d="m30.614 15.777 2.167-2.167 2.306 2.306 1.132-1.132-2.306-2.306 1.321-1.32 2.537 2.536 1.192-1.192-4.05-4.05-5.812 5.811zm5.22 5.413c1.448 1.448 3.193 1.485 4.68-.001 1.462-1.462 1.428-3.244-.003-4.675-1.427-1.427-3.22-1.456-4.675-.002-1.482 1.482-1.45 3.23-.001 4.678zm1.052-1.05c-.536-.537-.395-1.322.43-2.148.806-.805 1.612-.959 2.144-.427.528.528.378 1.338-.427 2.143-.826.826-1.615.963-2.147.431zm1.974 3.882 1.46 1.46 2.368-2.368c.629-.628 1.321-.628 1.948-.001.178.177.323.379.394.555l1.225-1.225a1.758 1.758 0 0 0-.32-.431c-.544-.545-1.225-.614-1.986-.183l-.03-.029.843-.842-1.42-1.419zm7.646 2.113-.028-.03 3.335-3.334-1.46-1.46-6.103 6.102 1.46 1.46 1.39-1.39.599-.037-.566 2.85 1.683 1.683.817-4.307 3.571-.27-1.633-1.634zm2.29 7.824 1.46 1.46 2.65-2.65c.452-.451 1.022-.477 1.43-.069.421.42.407.914-.044 1.365l-2.695 2.694 1.394 1.395 2.658-2.659c.452-.45 1.006-.477 1.418-.064.433.433.41.91-.065 1.385l-2.675 2.674 1.46 1.46 3.038-3.037c.91-.91.912-2.133.017-3.028-.685-.685-1.608-.867-2.37-.468l-.029-.029c.476-.74.353-1.549-.328-2.23-.619-.618-1.493-.767-2.25-.372l-.029-.03.862-.861-1.419-1.42zm12.15 9.33c-.417.196-.92.063-1.324-.341-.548-.549-.55-1.299-.001-1.846l.088-.089 3.106 3.106.407-.407c1.365-1.365 1.36-3.126-.009-4.495-1.394-1.395-3.19-1.363-4.637.083-1.442 1.442-1.441 3.19.01 4.642 1.188 1.188 2.622 1.446 3.68.668zm1.273-3.037c.487.487.499 1.143.032 1.668l-1.708-1.708c.517-.442 1.206-.43 1.676.04zm3.058 10.38c1.448 1.448 3.192 1.486 4.679 0 1.462-1.463 1.428-3.244-.003-4.676-1.427-1.427-3.22-1.456-4.675-.002-1.482 1.482-1.449 3.23-.001 4.679zm1.051-1.05c-.536-.537-.395-1.322.431-2.147.806-.806 1.61-.96 2.143-.427.528.528.378 1.337-.427 2.142-.826.826-1.615.964-2.147.431zm1.974 3.883 1.46 1.46 2.53-2.53c.507-.507 1.163-.569 1.658-.074.503.503.44 1.061-.08 1.58l-2.565 2.566 1.464 1.465 2.872-2.872c1.06-1.06 1.114-2.261.091-3.284-.7-.701-1.493-.857-2.341-.505l-.029-.029.842-.841-1.419-1.42zm14.905 9.991.713-.713-2.549-2.549-1.015 1.015 1.09 1.089-.094.084c-.625.543-1.498.46-2.183-.225-.87-.87-.734-2.128.418-3.28 1.132-1.132 2.295-1.281 3.153-.423.582.581.713 1.34.346 2.005l1.497 1.497c1.032-1.337.785-3.251-.659-4.695-1.798-1.798-4.015-1.792-5.9.093-1.91 1.91-1.911 4.122-.076 5.958 1.695 1.695 3.672 1.731 5.26.144zm-1.78 3.133 1.464 1.465 4.483-4.483-1.464-1.465zm5.583-4.123c.417.417 1.053.457 1.46.05.403-.403.367-1.043-.05-1.46-.412-.412-1.053-.448-1.455-.046-.407.407-.367 1.044.045 1.456zm2.464 1.223-.99.991-.615-.614-1.055 1.055.614.615-2.199 2.199c-.878.878-.77 1.702.41 2.882.284.285.523.475.7.587l1.014-1.015a2.908 2.908 0 0 1-.317-.277c-.359-.359-.375-.689-.06-1.003l1.913-1.913.829.829 1.055-1.055-.83-.83.992-.99zm1.893 10.02c-.418.195-.92.063-1.325-.341-.549-.549-.55-1.299-.002-1.847l.089-.088 3.106 3.106.407-.407c1.365-1.365 1.36-3.126-.009-4.496-1.394-1.394-3.191-1.362-4.637.084-1.442 1.442-1.442 3.19.01 4.642 1.188 1.188 2.622 1.446 3.68.668zm1.272-3.037c.486.487.498 1.143.032 1.667l-1.708-1.707c.517-.442 1.205-.43 1.676.04zm3.698 8.008c-.418.195-.92.062-1.325-.342-.548-.548-.55-1.298-.001-1.846l.088-.089 3.106 3.106.407-.407c1.365-1.365 1.36-3.126-.009-4.495-1.394-1.394-3.19-1.363-4.637.083-1.442 1.442-1.441 3.19.01 4.642 1.188 1.188 2.622 1.446 3.68.668zm1.272-3.038c.487.487.499 1.143.032 1.668l-1.708-1.708c.517-.442 1.206-.43 1.676.04z" fill="#fff"/></svg>